<svg width="56" height="56" viewBox="0 0 56 56" fill="none" xmlns="http://www.w3.org/2000/svg">
<g clip-path="url(#clip0_175_828)">
<path d="M28.0126 0C12.5313 0 0 10.7674 0 24.0739C0 28.4702 1.38676 32.6079 3.78208 36.1579C3.2778 42.2704 7.00945 49.1117 13.9433 53.508C15.5317 54.5189 17.1959 55.3417 18.8852 55.9765C19.0617 56.047 19.213 55.8589 19.1121 55.7179C19.0869 55.6944 19.0617 55.6474 19.0365 55.6238C16.5151 52.0504 19.692 47.3955 24.2557 47.9127C25.4912 48.0537 26.7267 48.1243 28.0126 48.1243C28.8447 48.1243 29.6767 48.1008 30.4836 48.0302C42.6619 47.1133 52.6213 39.4962 55.294 29.4811C55.4957 28.7053 55.6722 27.9295 55.7731 27.1301C55.9244 26.1192 56 25.1083 56 24.0504C56 10.7674 43.4687 0 28.0126 0Z" fill="#5842BE"/>
<path opacity="0.1" d="M56 24.0739C56 25.1083 55.9243 26.1427 55.773 27.1537C55.647 27.953 55.4957 28.7288 55.294 29.5046C52.6213 39.5197 42.6618 47.1369 30.4835 48.0537C29.6767 48.1243 28.8446 48.1478 28.0126 48.1478C27.3822 48.1478 26.7519 48.1243 26.1467 48.1008C26.3484 48.1008 26.5754 48.0772 26.7771 48.0537C38.9554 47.1369 48.9149 39.5197 51.5875 29.5046C51.7892 28.7288 51.9657 27.953 52.0666 27.1537C52.2179 26.1427 52.2935 25.1318 52.2935 24.0739C52.2935 11.3081 40.7456 0.869857 26.1467 0.0470193C26.7519 0 27.3822 0 28.0126 0C43.4687 0 56 10.7674 56 24.0739Z" fill="#4C44FF"/>
<path opacity="0.23" d="M24.0792 47.9362C24.7096 48.0067 25.3147 48.0537 25.945 48.1007C25.3399 48.1478 24.7348 48.1478 24.1044 48.1478C23.3732 48.1478 22.642 48.1242 21.936 48.0772C22.5916 47.9127 23.3228 47.8421 24.0792 47.9362Z" fill="#4C44FF"/>
<g opacity="0.1">
<path d="M22.6629 20.7264C24.817 20.2489 26.1481 18.2335 25.636 16.225C25.1238 14.2165 22.9624 12.9754 20.8083 13.4529C18.6542 13.9304 17.3231 15.9457 17.8352 17.9542C18.3474 19.9628 20.5088 21.2039 22.6629 20.7264Z" fill="#4C44FF"/>
<path d="M35.5012 20.8296C37.7153 20.8296 39.5102 19.156 39.5102 17.0916C39.5102 15.0271 37.7153 13.3535 35.5012 13.3535C33.2871 13.3535 31.4922 15.0271 31.4922 17.0916C31.4922 19.156 33.2871 20.8296 35.5012 20.8296Z" fill="#4C44FF"/>
<path d="M29.4246 37.4979C29.6263 37.4979 29.8028 37.4744 29.9793 37.4509C30.0297 37.4509 30.0801 37.4509 30.1558 37.4274C30.307 37.4038 30.4835 37.3803 30.6348 37.3803C30.6853 37.3803 30.7357 37.3568 30.7861 37.3568C30.9878 37.3333 31.1643 37.2863 31.3408 37.2628C31.3912 37.2628 31.4669 37.2393 31.5173 37.2393C31.6938 37.1923 31.8955 37.1687 32.072 37.1217C38.0981 35.6876 42.5862 30.5625 42.5862 24.497C42.5862 22.7338 41.0734 21.3232 39.1823 21.3232C37.3165 21.3232 35.7785 22.7338 35.7785 24.497C35.7785 27.5063 33.6353 30.0453 30.7105 30.8917C30.5592 30.9387 30.4079 30.9622 30.2566 31.0092C30.2314 31.0092 30.181 31.0327 30.1558 31.0327C29.828 31.1033 29.5254 31.1503 29.1976 31.1738C29.1724 31.1738 29.1472 31.1738 29.122 31.1738C28.9455 31.1738 28.7942 31.1973 28.6177 31.1973C28.6177 31.1973 28.6177 31.1973 28.5925 31.1973C24.6591 31.1973 21.4318 28.1881 21.4318 24.5206C21.4318 22.7573 19.9189 21.3468 18.0279 21.3468C16.1621 21.3468 14.624 22.7573 14.624 24.5206C14.624 31.691 20.8771 37.5449 28.5925 37.5449C28.6177 37.5449 28.6681 37.5449 28.6934 37.5449C28.8699 37.5449 29.0211 37.5449 29.1976 37.5214C29.2985 37.4979 29.3741 37.4979 29.4246 37.4979Z" fill="#4C44FF"/>
</g>
<path d="M32.6519 34.183C32.6519 35.2409 32.198 36.1813 31.4668 36.8866C30.3574 37.1452 29.1976 37.2863 28.0125 37.2863C26.1215 37.2863 24.6086 35.8757 24.6086 34.1125C24.6086 32.3728 26.1215 30.9387 28.0125 30.9387C28.7437 30.9387 29.4497 30.8446 30.1305 30.6331C31.6181 31.2208 32.6519 32.5844 32.6519 34.183Z" fill="#EF57A4"/>
<path d="M21.104 20.5945C23.3181 20.5945 25.113 18.9209 25.113 16.8564C25.113 14.792 23.3181 13.1184 21.104 13.1184C18.8899 13.1184 17.095 14.792 17.095 16.8564C17.095 18.9209 18.8899 20.5945 21.104 20.5945Z" fill="#FCE039"/>
<path d="M34.8706 20.5945C37.0847 20.5945 38.8796 18.9209 38.8796 16.8564C38.8796 14.792 37.0847 13.1184 34.8706 13.1184C32.6565 13.1184 30.8616 14.792 30.8616 16.8564C30.8616 18.9209 32.6565 20.5945 34.8706 20.5945Z" fill="#EF57A4"/>
<path d="M27.9874 37.2863C26.1215 37.2863 24.5835 35.8757 24.5835 34.1125C24.5835 32.3493 26.0963 30.9387 27.9874 30.9387C31.9459 30.9387 35.1481 27.953 35.1481 24.2619C35.1481 22.4987 36.6609 21.0881 38.552 21.0881C40.4178 21.0881 41.9558 22.4987 41.9558 24.2619C41.9558 31.4324 35.7028 37.2863 27.9874 37.2863Z" fill="#EF57A4"/>
<path opacity="0.15" d="M32.6519 34.183C32.6519 35.2409 32.198 36.1813 31.4668 36.8866C30.3574 37.1452 29.1976 37.2863 28.0125 37.2863C26.1215 37.2863 24.6086 35.8757 24.6086 34.1125C24.6086 32.3728 26.1215 30.9387 28.0125 30.9387C28.7437 30.9387 29.4497 30.8446 30.1305 30.6331C31.6181 31.2208 32.6519 32.5844 32.6519 34.183Z" fill="#4C44FF"/>
<path d="M27.9873 37.2863C20.2971 37.2863 14.0188 31.4559 14.0188 24.2619C14.0188 22.4987 15.5316 21.0881 17.4227 21.0881C19.2885 21.0881 20.8265 22.4987 20.8265 24.2619C20.8265 27.953 24.0287 30.9387 27.9873 30.9387C29.8531 30.9387 31.3912 32.3493 31.3912 34.1125C31.3912 35.8757 29.8783 37.2863 27.9873 37.2863Z" fill="#FCE039"/>
</g>
<defs>
<clipPath id="clip0_175_828">
<rect width="56" height="56" fill="white"/>
</clipPath>
</defs>
</svg>
