<svg width="24" height="25" viewBox="0 0 24 25" fill="none" xmlns="http://www.w3.org/2000/svg">
<path d="M17 16.5L21 12.5M21 12.5L17 8.5M21 12.5H7M13 16.5V17.5C13 18.2956 12.6839 19.0587 12.1213 19.6213C11.5587 20.1839 10.7956 20.5 10 20.5H6C5.20435 20.5 4.44129 20.1839 3.87868 19.6213C3.31607 19.0587 3 18.2956 3 17.5V7.5C3 6.70435 3.31607 5.94129 3.87868 5.37868C4.44129 4.81607 5.20435 4.5 6 4.5H10C10.7956 4.5 11.5587 4.81607 12.1213 5.37868C12.6839 5.94129 13 6.70435 13 7.5V8.5" stroke="#8F8F8F" stroke-width="2" stroke-linecap="round" stroke-linejoin="round"/>
</svg>
